<?xml version="1.0" encoding="UTF-8" standalone="no"?>
<svg
   xmlns:osb="http://www.openswatchbook.org/uri/2009/osb"
   xmlns:dc="http://purl.org/dc/elements/1.1/"
   xmlns:cc="http://creativecommons.org/ns#"
   xmlns:rdf="http://www.w3.org/1999/02/22-rdf-syntax-ns#"
   xmlns:svg="http://www.w3.org/2000/svg"
   xmlns="http://www.w3.org/2000/svg"
   id="svg8"
   version="1.1"
   viewBox="0 0 105.83333 105.83334"
   height="400"
   width="400">
  <defs
     id="defs2">
    <linearGradient
       osb:paint="solid"
       id="linearGradient875">
      <stop
         id="stop873"
         offset="0"
         style="stop-color:#1c768f;stop-opacity:1;" />
    </linearGradient>
  </defs>
  <metadata
     id="metadata5">
    <rdf:RDF>
      <cc:Work
         rdf:about="">
        <dc:format>image/svg+xml</dc:format>
        <dc:type
           rdf:resource="http://purl.org/dc/dcmitype/StillImage" />
        <dc:title></dc:title>
      </cc:Work>
    </rdf:RDF>
  </metadata>
  <g
     style="display:inline"
     id="layer2">
    <rect
       y="1.679899"
       x="1.7012587"
       height="102.46925"
       width="102.46925"
       id="rect869"
       style="fill:#ffffff;fill-opacity:1;stroke:#1c768f;stroke-width:3.36409;stroke-miterlimit:4;stroke-dasharray:none;stroke-dashoffset:0;stroke-opacity:1" />
  </g>
  <g
     id="layer1">
    <g
       transform="matrix(2.6252978,0,0,2.6252978,-51.362506,-97.029675)"
       style="font-style:normal;font-variant:normal;font-weight:600;font-stretch:normal;font-size:37.2769px;line-height:1.25;font-family:Lato;-inkscape-font-specification:'Lato, Semi-Bold';font-variant-ligatures:normal;font-variant-caps:normal;font-variant-numeric:normal;font-variant-east-asian:normal;opacity:0.998;fill:#1c768f;fill-opacity:1;stroke:none;stroke-width:0.436837;stroke-opacity:1"
       id="text12"
       aria-label="R">
      <path
         id="path934"
         style="font-style:normal;font-variant:normal;font-weight:600;font-stretch:normal;font-size:37.2769px;font-family:Lato;-inkscape-font-specification:'Lato, Semi-Bold';font-variant-ligatures:normal;font-variant-caps:normal;font-variant-numeric:normal;font-variant-east-asian:normal;fill:#1c768f;fill-opacity:1;stroke:none;stroke-width:0.436837;stroke-opacity:1"
         d="m 37.305215,56.555967 q 1.491076,0 2.609383,-0.35413 1.118307,-0.372769 1.863845,-1.025115 0.745538,-0.652346 1.118307,-1.546991 0.372769,-0.913284 0.372769,-2.012953 0,-2.199337 -1.453799,-3.354921 -1.453799,-1.155584 -4.398674,-1.155584 H 33.87574 v 9.449694 z m 12.636869,13.978838 h -3.895436 q -1.155584,0 -1.67746,-0.894645 l -6.26252,-9.039649 Q 37.789815,60.13455 37.417046,59.929527 37.044277,59.724504 36.298739,59.724504 H 33.87574 V 70.534805 H 29.514343 V 43.695436 h 7.902703 q 2.64666,0 4.547782,0.540515 1.91976,0.540516 3.149898,1.546992 1.230137,0.987838 1.807929,2.385722 0.596431,1.397883 0.596431,3.112621 0,1.397884 -0.428684,2.609383 -0.410046,1.211499 -1.2115,2.199337 -0.782815,0.987838 -1.938399,1.714738 -1.155584,0.726899 -2.628021,1.136945 0.801453,0.4846 1.379245,1.360607 z" />
    </g>
  </g>
</svg>
